<svg width="32" height="32" viewBox="0 0 32 32" fill="none" xmlns="http://www.w3.org/2000/svg">
<path d="M7.51471 7.94281C8.03541 7.42211 8.87963 7.42211 9.40033 7.94281L24.4853 23.0278C25.006 23.5485 25.006 24.3927 24.4853 24.9134C23.9646 25.4341 23.1204 25.4341 22.5997 24.9134L7.51471 9.82843C6.99401 9.30773 6.99401 8.46351 7.51471 7.94281Z" fill="#A5C7FF"/>
<path d="M7.51459 24.9426C6.99389 24.4219 6.99389 23.5776 7.51459 23.0569L22.5995 7.972C23.1202 7.4513 23.9645 7.4513 24.4851 7.972C25.0058 8.4927 25.0058 9.33692 24.4851 9.85762L9.4002 24.9426C8.87951 25.4633 8.03528 25.4633 7.51459 24.9426Z" fill="#A5C7FF"/>
</svg>
